<svg xmlns="http://www.w3.org/2000/svg" version="1.1" xmlns:xlink="http://www.w3.org/1999/xlink" xmlns:svgjs="http://svgjs.com/svgjs" width="1920" height="1080" preserveAspectRatio="none" viewBox="0 0 1920 1080"><g mask="url(&quot;#SvgjsMask1118&quot;)" fill="none"><path d="M1399.1911310504656 694.874384908803L1227.844780487286 565.4994406563358 1201.7241700240147 751.3572414768884z" fill="rgba(0, 73, 255, 0.13)" class="triangle-float3"></path><path d="M-170.15097729322932 300.87775427944854L-54.37414299023456 493.5627641414182 138.3108668717351 377.78592983842344 22.534032568740344 185.10091997645378z" fill="rgba(0, 73, 255, 0.13)" class="triangle-float3"></path><path d="M1262.02,434.799C1333.735,434.04,1399.505,396.944,1436.48,335.491C1474.688,271.989,1482.662,192.948,1446.442,128.291C1409.454,62.262,1337.691,25.412,1262.02,24.055C1183.758,22.651,1104.746,53.58,1065.771,121.462C1026.933,189.105,1039.645,273.146,1081.048,339.251C1119.857,401.214,1188.911,435.572,1262.02,434.799" fill="rgba(0, 73, 255, 0.13)" class="triangle-float1"></path><path d="M694.2378414399112 351.08504490441L503.2144416633637 595.5838470014753 747.713243760429 786.6072467780227 938.7366435369765 542.1084446809575z" fill="rgba(0, 73, 255, 0.13)" class="triangle-float2"></path><path d="M266.3298810713228 89.87200367586563L128.6543178304396-57.76696247868189-18.984648324107923 79.90860076220132 118.69091491677528 227.54756691674885z" fill="rgba(0, 73, 255, 0.13)" class="triangle-float2"></path><path d="M1107.716,576.43C1192.294,578.914,1267.557,525.656,1309.25,452.027C1350.321,379.497,1356.766,287.904,1310.268,218.728C1267.777,155.513,1183.876,153.306,1107.716,152.202C1028.621,151.055,936.934,145.801,894.731,212.705C850.862,282.25,884.141,369.81,925.69,440.765C966.674,510.755,1026.644,574.049,1107.716,576.43" fill="rgba(0, 73, 255, 0.13)" class="triangle-float1"></path></g><defs><mask id="SvgjsMask1118"><rect width="1920" height="1080" fill="#ffffff"></rect></mask><style>
            @keyframes float1 {
                0%{transform: translate(0, 0)}
                50%{transform: translate(-10px, 0)}
                100%{transform: translate(0, 0)}
            }

            .triangle-float1 {
                animation: float1 5s infinite;
            }

            @keyframes float2 {
                0%{transform: translate(0, 0)}
                50%{transform: translate(-5px, -5px)}
                100%{transform: translate(0, 0)}
            }

            .triangle-float2 {
                animation: float2 4s infinite;
            }

            @keyframes float3 {
                0%{transform: translate(0, 0)}
                50%{transform: translate(0, -10px)}
                100%{transform: translate(0, 0)}
            }

            .triangle-float3 {
                animation: float3 6s infinite;
            }
        </style></defs></svg>