<svg xmlns="http://www.w3.org/2000/svg" version="1.1" xmlns:xlink="http://www.w3.org/1999/xlink" xmlns:svgjs="http://svgjs.com/svgjs" width="1920" height="1080" preserveAspectRatio="none" viewBox="0 0 1920 1080"><g mask="url(&quot;#SvgjsMask1047&quot;)" fill="none"><path d="M1458.787,293.026C1515.327,293.994,1576.422,282.707,1605.808,234.394C1636.077,184.63,1623.646,121.569,1593.324,71.837C1564.347,24.312,1514.393,-4.23,1458.787,-6.735C1397.982,-9.474,1332.273,6.187,1301.48,58.69C1270.421,111.647,1286.015,178.533,1320.233,229.506C1350.584,274.719,1404.34,292.094,1458.787,293.026" fill="rgba(0, 73, 255, 0.13)" class="triangle-float3"></path><path d="M1655.813313051781 739.1928696981488L1677.4046732651097 616.7421810594808 1482.9329602004434 645.5804850588218z" fill="rgba(0, 73, 255, 0.13)" class="triangle-float1"></path><path d="M375.082,1058.535C405.479,1056.774,429.831,1035.498,444.173,1008.639C457.621,983.456,457.967,953.848,444.397,928.73C430.081,902.232,405.188,879.908,375.082,880.751C346.007,881.565,327.463,907.686,312.177,932.431C295.691,959.118,276.581,989.466,290.583,1017.535C305.561,1047.561,341.583,1060.475,375.082,1058.535" fill="rgba(0, 73, 255, 0.13)" class="triangle-float3"></path><path d="M1835.8171362690487 688.0996854851039L1790.6567697562098 431.98251991356807 1534.5396041846739 477.142886426407 1579.6999706975128 733.2600519979428z" fill="rgba(0, 73, 255, 0.13)" class="triangle-float2"></path><path d="M1292.4305297794892 546.9283917521885L1246.580233362571 806.9583442455391 1506.6101858559218 852.8086406624573 1552.46048227284 592.7786881691067z" fill="rgba(0, 73, 255, 0.13)" class="triangle-float3"></path><path d="M876.81 520.68 a190.41 190.41 0 1 0 380.82 0 a190.41 190.41 0 1 0 -380.82 0z" fill="rgba(0, 73, 255, 0.13)" class="triangle-float1"></path><path d="M399.90711832765186 1180.5287640512013L476.39294215174823 991.2197070314654 154.18644471009617 971.1454998051888z" fill="rgba(0, 73, 255, 0.13)" class="triangle-float1"></path><path d="M1809.19,1243.16C1886.047,1240.699,1943.259,1180.566,1981.072,1113.61C2018.116,1048.015,2034.928,970.898,2000.905,903.687C1963.564,829.92,1891.861,772.843,1809.19,774.061C1728.163,775.255,1665.898,838.097,1627.016,909.196C1589.939,976.994,1580.121,1057.426,1617.126,1125.263C1655.683,1195.946,1728.716,1245.737,1809.19,1243.16" fill="rgba(0, 73, 255, 0.13)" class="triangle-float3"></path><path d="M687.828,1210.281C764.265,1211.837,851.941,1208.67,890.943,1142.914C930.408,1076.378,897.715,993.569,854.375,929.489C816.776,873.898,754.84,846.275,687.828,842.604C612.119,838.456,527.569,845.68,486.358,909.326C442.487,977.08,453.646,1067.851,498.548,1134.926C539.038,1195.409,615.058,1208.8,687.828,1210.281" fill="rgba(0, 73, 255, 0.13)" class="triangle-float1"></path></g><defs><mask id="SvgjsMask1047"><rect width="1920" height="1080" fill="#ffffff"></rect></mask><style>
            @keyframes float1 {
                0%{transform: translate(0, 0)}
                50%{transform: translate(-10px, 0)}
                100%{transform: translate(0, 0)}
            }

            .triangle-float1 {
                animation: float1 5s infinite;
            }

            @keyframes float2 {
                0%{transform: translate(0, 0)}
                50%{transform: translate(-5px, -5px)}
                100%{transform: translate(0, 0)}
            }

            .triangle-float2 {
                animation: float2 4s infinite;
            }

            @keyframes float3 {
                0%{transform: translate(0, 0)}
                50%{transform: translate(0, -10px)}
                100%{transform: translate(0, 0)}
            }

            .triangle-float3 {
                animation: float3 6s infinite;
            }
        </style></defs></svg>